<svg width="32" height="32" viewBox="0 0 32 32" fill="none" xmlns="http://www.w3.org/2000/svg">
<circle cx="16" cy="16" r="16" fill="white"/>
<path d="M12.0351 20.4603L14.6783 17.685L17.6849 20.4603H22.839L14.6452 12.4317L6.51746 20.4603H12.0351Z" fill="#2D383F"/>
<path d="M19.6013 7.57489L15.7026 11.5396L18.2797 14.1828L19.6013 12.8612L26.837 20.0639C25.185 24.4581 20.9559 27.5969 15.967 27.5969C9.55727 27.5969 4.37004 22.4097 4.37004 16C4.40308 9.59031 9.59031 4.40308 16 4.40308C21.6828 4.40308 26.4405 8.53304 27.3987 13.9185L30.9009 17.6189C30.967 17.0903 31 16.5286 31 16C31 12.0022 29.4471 8.23568 26.6057 5.39427C23.7643 2.55286 19.9978 1 16 1C11.9692 1 8.23568 2.55286 5.39427 5.39427C2.55286 8.23568 1 11.9692 1 16C1 20.0308 2.55286 23.7643 5.39427 26.6057C8.23568 29.4471 12.0022 31 16 31C19.9978 31 23.7643 29.4471 26.6057 26.6057C28.3568 24.8546 29.6123 22.7731 30.3062 20.4934C30.4383 20.0969 30.5374 19.6674 30.6366 19.2709L27.5969 16.0661L19.6013 7.57489Z" fill="#2D383F"/>
</svg>
